<svg xmlns="http://www.w3.org/2000/svg" viewBox="0 0 1020 540" width="1020" height="540" font-family="-apple-system,'Helvetica Neue',Arial,'Apple SD Gothic Neo','Malgun Gothic',sans-serif">
<rect width="1020" height="540" fill="#ffffff"/>
<rect x="150" y="92" width="690" height="268" fill="#fbfbfb" stroke="#e2e2e2"/>
<line x1="357" y1="92" x2="357" y2="360" stroke="#d4d4d4" stroke-width="1" stroke-dasharray="4 4"/>
<line x1="633" y1="92" x2="633" y2="360" stroke="#d4d4d4" stroke-width="1" stroke-dasharray="4 4"/>
<line x1="771" y1="92" x2="771" y2="360" stroke="#d4d4d4" stroke-width="1" stroke-dasharray="4 4"/>
<rect x="771" y="92" width="69" height="268" fill="#f0f0f0"/>
<polyline points="150.0,360.0 357.0,360.0 633.0,195.1 771.0,112.6 840.0,92.0" fill="none" stroke="#1a1a1a" stroke-width="3"/>
<polyline points="150.0,360.0 357.0,226.0 633.0,172.4 771.0,92.0 840.0,92.0" fill="none" stroke="#9a9a9a" stroke-width="2.4" stroke-dasharray="7 4"/>
<circle cx="150.0" cy="360.0" r="5" fill="#1a1a1a"/>
<circle cx="357.0" cy="360.0" r="5" fill="#1a1a1a"/>
<circle cx="633.0" cy="195.1" r="5" fill="#1a1a1a"/>
<circle cx="771.0" cy="112.6" r="5" fill="#1a1a1a"/>
<circle cx="840.0" cy="92.0" r="5" fill="#1a1a1a"/>
<circle cx="150.0" cy="360.0" r="4.5" fill="#ffffff" stroke="#9a9a9a" stroke-width="2"/>
<circle cx="357.0" cy="226.0" r="4.5" fill="#ffffff" stroke="#9a9a9a" stroke-width="2"/>
<circle cx="633.0" cy="172.4" r="4.5" fill="#ffffff" stroke="#9a9a9a" stroke-width="2"/>
<circle cx="771.0" cy="92.0" r="4.5" fill="#ffffff" stroke="#9a9a9a" stroke-width="2"/>
<circle cx="840.0" cy="92.0" r="4.5" fill="#ffffff" stroke="#9a9a9a" stroke-width="2"/>
<line x1="150.0" y1="360" x2="150.0" y2="366" stroke="#888" stroke-width="1"/>
<text x="142" y="384" font-size="13" fill="#666" font-weight="400">0%</text>
<line x1="357.0" y1="360" x2="357.0" y2="366" stroke="#888" stroke-width="1"/>
<text x="346" y="384" font-size="13" fill="#666" font-weight="400">30%</text>
<line x1="633.0" y1="360" x2="633.0" y2="366" stroke="#888" stroke-width="1"/>
<text x="622" y="384" font-size="13" fill="#666" font-weight="400">70%</text>
<line x1="771.0" y1="360" x2="771.0" y2="366" stroke="#888" stroke-width="1"/>
<text x="760" y="384" font-size="13" fill="#666" font-weight="400">90%</text>
<line x1="840.0" y1="360" x2="840.0" y2="366" stroke="#888" stroke-width="1"/>
<text x="825" y="384" font-size="13" fill="#666" font-weight="400">100%</text>
<text x="460" y="410" font-size="14" fill="#444" font-weight="600">위험게이지</text>
<line x1="144" y1="360.0" x2="150" y2="360.0" stroke="#888" stroke-width="1"/>
<text x="104" y="365" font-size="12.5" fill="#444" font-weight="400">1.5초</text>
<line x1="144" y1="195.1" x2="150" y2="195.1" stroke="#888" stroke-width="1"/>
<text x="104" y="200" font-size="12.5" fill="#444" font-weight="400">0.7초</text>
<line x1="144" y1="112.6" x2="150" y2="112.6" stroke="#888" stroke-width="1"/>
<text x="104" y="117" font-size="12.5" fill="#444" font-weight="400">0.3초</text>
<line x1="144" y1="92.0" x2="150" y2="92.0" stroke="#888" stroke-width="1"/>
<text x="104" y="97" font-size="12.5" fill="#444" font-weight="400">0.2초</text>
<line x1="840" y1="360.0" x2="846" y2="360.0" stroke="#aaa" stroke-width="1"/>
<text x="852" y="365" font-size="12.5" fill="#999" font-weight="400">0.0</text>
<line x1="840" y1="226.0" x2="846" y2="226.0" stroke="#aaa" stroke-width="1"/>
<text x="852" y="231" font-size="12.5" fill="#999" font-weight="400">0.5</text>
<line x1="840" y1="172.4" x2="846" y2="172.4" stroke="#aaa" stroke-width="1"/>
<text x="852" y="177" font-size="12.5" fill="#999" font-weight="400">0.7</text>
<line x1="840" y1="92.0" x2="846" y2="92.0" stroke="#aaa" stroke-width="1"/>
<text x="852" y="97" font-size="12.5" fill="#999" font-weight="400">1.0</text>
<text x="93" y="60" font-size="13.5" fill="#1a1a1a" font-weight="700">틱 간격</text>
<text x="852" y="60" font-size="13.5" fill="#999" font-weight="700">볼륨</text>
<text x="65" y="78" font-size="11.5" fill="#999" font-weight="400">짧을수록 긴박</text>
<text x="781" y="80" font-size="12" fill="#888" font-weight="400">90~100%</text>
<line x1="64" y1="410" x2="956" y2="410" stroke="#dcdcdc"/>
<text x="64" y="438" font-size="14" fill="#333" font-weight="400">게이지를 숫자가 아니라 <tspan font-weight="600">소리로 알린다.</tspan> 위험할수록 틱이 빨라지고 커진다 — 심장박동처럼.</text>
<text x="64" y="462" font-size="14" fill="#666" font-weight="400">100%에 닿으면 그 스테이지의 최종 방해자만 깨어난다 (<tspan font-family="ui-monospace,Menlo,monospace">IDangerTarget</tspan> 구현체 4개 중 3개가 빌드에 포함).</text>
<text x="417" y="506" font-size="14" fill="#1a1a1a" font-weight="400">위험게이지 — 틱 사운드 설계</text>
</svg>